<svg width="146" height="19" viewBox="0 0 146 19" version="1.1" xmlns="http://www.w3.org/2000/svg" xmlns:xlink="http://www.w3.org/1999/xlink">
<title>&#208;&#161;&#208;&#184;&#208;&#177;&#208;&#184;&#209;&#128;&#209;&#129;&#208;&#186;&#208;&#184;&#208;&#185; &#208;&#191;&#209;&#128;&#208;&#190;&#208;&#180;&#209;&#131;&#208;&#186;&#209;&#130;</title>
<desc>Created using Figma</desc>
<g id="Canvas" transform="translate(377 164)">
<g id="&#208;&#161;&#208;&#184;&#208;&#177;&#208;&#184;&#209;&#128;&#209;&#129;&#208;&#186;&#208;&#184;&#208;&#185; &#208;&#191;&#209;&#128;&#208;&#190;&#208;&#180;&#209;&#131;&#208;&#186;&#209;&#130;">
<use xlink:href="#path0_fill" transform="translate(-377 -168)" fill="#FFFFFF"/>
</g>
</g>
<defs>
<path id="path0_fill" d="M 4.58966 18.288C 3.23366 18.288 2.23766 17.946 1.60166 17.262C 0.965664 16.578 0.647664 15.444 0.647664 13.86C 0.647664 12.6 0.857664 11.244 1.27766 9.792C 1.70966 8.34 2.39366 7.098 3.32966 6.066C 4.27766 5.022 5.47766 4.5 6.92966 4.5C 7.82966 4.5 8.55566 4.698 9.10766 5.094C 9.65966 5.49 9.93566 6.096 9.93566 6.912C 9.93566 7.428 9.83366 7.836 9.62966 8.136C 9.42566 8.424 9.10766 8.568 8.67566 8.568C 8.24366 8.568 7.90166 8.412 7.64966 8.1C 7.86566 7.992 8.05766 7.776 8.22566 7.452C 8.39366 7.128 8.47766 6.792 8.47766 6.444C 8.47766 6.12 8.38766 5.856 8.20766 5.652C 8.03966 5.448 7.76366 5.346 7.37966 5.346C 6.74366 5.346 6.13766 5.784 5.56166 6.66C 4.98566 7.524 4.51766 8.616 4.15766 9.936C 3.80966 11.256 3.63566 12.528 3.63566 13.752C 3.63566 14.664 3.79166 15.36 4.10366 15.84C 4.41566 16.32 4.97966 16.56 5.79566 16.56C 6.50366 16.56 7.15766 16.404 7.75766 16.092C 8.35766 15.78 8.87366 15.336 9.30566 14.76L 9.71966 14.94C 9.41966 15.696 8.97566 16.326 8.38766 16.83C 7.79966 17.334 7.16966 17.706 6.49766 17.946C 5.82566 18.174 5.18966 18.288 4.58966 18.288ZM 11.0349 18.108C 10.4589 18.108 9.99093 17.928 9.63093 17.568C 9.28293 17.208 9.10893 16.668 9.10893 15.948C 9.10893 15.648 9.15693 15.258 9.25293 14.778L 10.4769 9L 13.0689 9L 11.7729 15.12C 11.7369 15.3 11.7189 15.468 11.7189 15.624C 11.7189 16.116 11.8989 16.362 12.2589 16.362C 12.5949 16.362 12.8829 16.224 13.1229 15.948C 13.3629 15.66 13.5549 15.27 13.6989 14.778L 14.9229 9L 17.5149 9L 16.2189 15.12C 16.1709 15.3 16.1469 15.492 16.1469 15.696C 16.1469 15.936 16.2009 16.11 16.3089 16.218C 16.4289 16.314 16.6209 16.362 16.8849 16.362C 17.2209 16.362 17.5089 16.218 17.7489 15.93C 18.0009 15.642 18.1989 15.258 18.3429 14.778L 19.0989 14.778C 18.6549 16.074 18.1029 16.956 17.4429 17.424C 16.7949 17.88 16.1409 18.108 15.4809 18.108C 14.9649 18.108 14.5509 17.964 14.2389 17.676C 13.9389 17.388 13.7589 16.962 13.6989 16.398C 13.2909 17.058 12.8589 17.508 12.4029 17.748C 11.9589 17.988 11.5029 18.108 11.0349 18.108ZM 20.9868 18.072C 20.0628 18.072 19.3488 17.826 18.8448 17.334C 18.3528 16.83 18.1068 16.062 18.1068 15.03C 18.1068 14.094 18.2988 13.2 18.6828 12.348C 19.0788 11.496 19.6488 10.806 20.3928 10.278C 21.1368 9.75 22.0128 9.486 23.0208 9.486L 23.3268 9.504C 23.1348 9.276 22.8408 8.964 22.4448 8.568C 22.0008 8.136 21.6708 7.77 21.4548 7.47C 21.2388 7.158 21.1308 6.816 21.1308 6.444C 21.1308 5.988 21.2868 5.652 21.5988 5.436C 21.9108 5.22 22.4028 5.112 23.0748 5.112L 25.8108 5.112L 26.3688 5.112C 26.6808 5.112 26.9088 5.094 27.0528 5.058C 27.1968 5.022 27.3108 4.95 27.3948 4.842C 27.4788 4.722 27.5568 4.524 27.6288 4.248L 28.4208 4.248C 28.2288 5.184 28.0188 5.88 27.7908 6.336C 27.5628 6.792 27.2628 7.104 26.8908 7.272C 26.5308 7.44 26.0268 7.524 25.3788 7.524L 23.6508 7.524C 23.5788 7.524 23.5188 7.542 23.4708 7.578C 23.4348 7.602 23.4168 7.656 23.4168 7.74C 23.4168 7.788 23.5188 7.944 23.7228 8.208C 24.1668 8.748 24.5448 9.33 24.8568 9.954C 25.1688 10.578 25.3248 11.31 25.3248 12.15C 25.3248 13.062 25.1448 13.98 24.7848 14.904C 24.4368 15.816 23.9328 16.572 23.2728 17.172C 22.6128 17.772 21.8508 18.072 20.9868 18.072ZM 21.6708 16.452C 22.1628 16.452 22.5708 16.152 22.8948 15.552C 23.2188 14.952 23.4528 14.274 23.5968 13.518C 23.7528 12.762 23.8308 12.18 23.8308 11.772C 23.8308 11.316 23.7768 11.004 23.6688 10.836C 23.5608 10.668 23.3868 10.584 23.1468 10.584C 22.6188 10.584 22.1748 10.872 21.8148 11.448C 21.4548 12.024 21.1848 12.678 21.0048 13.41C 20.8248 14.142 20.7348 14.712 20.7348 15.12C 20.7348 15.636 20.8008 15.99 20.9328 16.182C 21.0768 16.362 21.3228 16.452 21.6708 16.452ZM 27.8572 18.108C 27.2812 18.108 26.8132 17.928 26.4532 17.568C 26.1052 17.208 25.9312 16.668 25.9312 15.948C 25.9312 15.648 25.9792 15.258 26.0752 14.778L 27.2992 9L 29.8912 9L 28.5952 15.12C 28.5592 15.3 28.5412 15.468 28.5412 15.624C 28.5412 16.116 28.7212 16.362 29.0812 16.362C 29.4172 16.362 29.7052 16.224 29.9452 15.948C 30.1852 15.66 30.3772 15.27 30.5212 14.778L 31.7452 9L 34.3372 9L 33.0412 15.12C 32.9932 15.3 32.9692 15.492 32.9692 15.696C 32.9692 15.936 33.0232 16.11 33.1312 16.218C 33.2512 16.314 33.4432 16.362 33.7072 16.362C 34.0432 16.362 34.3312 16.218 34.5712 15.93C 34.8232 15.642 35.0212 15.258 35.1652 14.778L 35.9212 14.778C 35.4772 16.074 34.9252 16.956 34.2652 17.424C 33.6172 17.88 32.9632 18.108 32.3032 18.108C 31.7872 18.108 31.3732 17.964 31.0612 17.676C 30.7612 17.388 30.5812 16.962 30.5212 16.398C 30.1132 17.058 29.6812 17.508 29.2252 17.748C 28.7812 17.988 28.3252 18.108 27.8572 18.108ZM 36.5311 8.334L 39.1231 8.334L 38.8351 9.684C 39.4351 9.168 40.1371 8.91 40.9411 8.91C 41.6131 8.91 42.1471 9.132 42.5431 9.576C 42.9391 10.02 43.1371 10.746 43.1371 11.754C 43.1371 12.702 42.9991 13.662 42.7231 14.634C 42.4471 15.594 41.9791 16.416 41.3191 17.1C 40.6591 17.772 39.7891 18.108 38.7091 18.108C 37.9411 18.108 37.4311 17.892 37.1791 17.46L 36.2431 21.852L 33.5251 22.5L 36.5311 8.334ZM 38.1511 16.542C 38.7271 16.542 39.2011 16.272 39.5731 15.732C 39.9571 15.192 40.2331 14.55 40.4011 13.806C 40.5811 13.05 40.6711 12.348 40.6711 11.7C 40.6711 10.704 40.3711 10.206 39.7711 10.206C 39.5551 10.206 39.3331 10.284 39.1051 10.44C 38.8891 10.596 38.6971 10.812 38.5291 11.088L 37.4671 16.128C 37.5631 16.404 37.7911 16.542 38.1511 16.542ZM 46.157 18.108C 45.269 18.108 44.579 17.88 44.087 17.424C 43.595 16.956 43.349 16.23 43.349 15.246C 43.349 14.418 43.511 13.506 43.835 12.51C 44.171 11.514 44.699 10.656 45.419 9.936C 46.151 9.204 47.075 8.838 48.191 8.838C 48.911 8.838 49.421 8.994 49.721 9.306C 50.033 9.618 50.189 10.014 50.189 10.494C 50.189 10.914 50.099 11.238 49.919 11.466C 49.739 11.694 49.511 11.808 49.235 11.808C 49.031 11.808 48.821 11.736 48.605 11.592C 48.749 11.196 48.821 10.842 48.821 10.53C 48.821 10.302 48.779 10.122 48.695 9.99C 48.611 9.858 48.485 9.792 48.317 9.792C 47.957 9.792 47.597 10.086 47.237 10.674C 46.877 11.262 46.583 11.976 46.355 12.816C 46.127 13.656 46.013 14.412 46.013 15.084C 46.013 15.672 46.115 16.074 46.319 16.29C 46.523 16.494 46.853 16.596 47.309 16.596C 47.957 16.596 48.509 16.446 48.965 16.146C 49.433 15.846 49.943 15.39 50.495 14.778L 51.107 14.778C 49.775 16.998 48.125 18.108 46.157 18.108ZM 56.9892 18.108C 56.2692 18.108 55.7232 17.934 55.3512 17.586C 54.9912 17.226 54.8112 16.734 54.8112 16.11C 54.8112 15.942 54.8532 15.606 54.9372 15.102C 54.9972 14.802 55.0272 14.568 55.0272 14.4C 55.0272 13.824 54.7992 13.536 54.3432 13.536C 54.1872 13.536 54.0372 13.584 53.8932 13.68C 53.7612 13.764 53.5272 13.938 53.1912 14.202L 52.3992 18L 49.8072 18L 51.7332 9L 54.3252 9L 53.5512 12.564C 54.3672 11.604 55.0152 10.872 55.4952 10.368C 55.9752 9.864 56.4132 9.486 56.8092 9.234C 57.2172 8.97 57.6132 8.838 57.9972 8.838C 58.7412 8.838 59.1132 9.234 59.1132 10.026C 59.1132 10.386 59.0112 10.674 58.8072 10.89C 58.6152 11.094 58.3392 11.196 57.9792 11.196C 57.6432 11.196 57.3912 11.106 57.2232 10.926C 57.0552 10.734 56.9772 10.518 56.9892 10.278C 56.7612 10.422 56.5572 10.584 56.3772 10.764C 56.1972 10.944 55.9992 11.178 55.7832 11.466C 55.5312 11.802 55.2852 12.09 55.0452 12.33C 55.2852 12.282 55.5372 12.258 55.8012 12.258C 56.4252 12.258 56.8632 12.396 57.1152 12.672C 57.3792 12.948 57.5112 13.368 57.5112 13.932C 57.5112 14.1 57.4752 14.376 57.4032 14.76C 57.3312 15.168 57.2952 15.48 57.2952 15.696C 57.2952 16.14 57.5352 16.362 58.0152 16.362C 58.3512 16.362 58.6152 16.248 58.8072 16.02C 59.0112 15.792 59.2452 15.378 59.5092 14.778L 60.2652 14.778C 59.5092 16.998 58.4172 18.108 56.9892 18.108ZM 61.2908 18.108C 60.7148 18.108 60.2468 17.928 59.8868 17.568C 59.5388 17.208 59.3648 16.668 59.3648 15.948C 59.3648 15.648 59.4128 15.258 59.5088 14.778L 60.7328 9L 63.3248 9L 62.0288 15.12C 61.9928 15.3 61.9748 15.468 61.9748 15.624C 61.9748 16.116 62.1548 16.362 62.5148 16.362C 62.8508 16.362 63.1388 16.224 63.3788 15.948C 63.6188 15.66 63.8108 15.27 63.9548 14.778L 65.1788 9L 67.7708 9L 66.4748 15.12C 66.4268 15.3 66.4028 15.492 66.4028 15.696C 66.4028 15.936 66.4568 16.11 66.5648 16.218C 66.6848 16.314 66.8768 16.362 67.1408 16.362C 67.4768 16.362 67.7648 16.218 68.0048 15.93C 68.2568 15.642 68.4548 15.258 68.5988 14.778L 69.3548 14.778C 68.9108 16.074 68.3588 16.956 67.6988 17.424C 67.0508 17.88 66.3968 18.108 65.7368 18.108C 65.2208 18.108 64.8068 17.964 64.4948 17.676C 64.1948 17.388 64.0148 16.962 63.9548 16.398C 63.5468 17.058 63.1148 17.508 62.6588 17.748C 62.2148 17.988 61.7588 18.108 61.2908 18.108ZM 73.2767 8.118C 72.5327 8.118 71.9567 7.98 71.5487 7.704C 71.1407 7.428 70.9367 7.05 70.9367 6.57C 70.9367 6.174 71.0447 5.856 71.2607 5.616C 71.4887 5.376 71.7827 5.256 72.1427 5.256C 72.4907 5.256 72.7607 5.34 72.9527 5.508C 73.1567 5.676 73.2587 5.916 73.2587 6.228C 73.2587 6.612 73.1147 6.9 72.8267 7.092C 72.9827 7.14 73.2227 7.164 73.5467 7.164C 74.1227 7.164 74.6567 7.002 75.1487 6.678C 75.6407 6.354 76.0307 5.814 76.3187 5.058L 77.0747 5.058C 76.6907 6.186 76.1867 6.978 75.5627 7.434C 74.9507 7.89 74.1887 8.118 73.2767 8.118ZM 70.3787 18.108C 69.8027 18.108 69.3347 17.928 68.9747 17.568C 68.6267 17.208 68.4527 16.668 68.4527 15.948C 68.4527 15.648 68.5007 15.258 68.5967 14.778L 69.8207 9L 72.4127 9L 71.1167 15.12C 71.0807 15.264 71.0627 15.414 71.0627 15.57C 71.0627 16.098 71.2427 16.362 71.6027 16.362C 71.9387 16.362 72.2267 16.224 72.4667 15.948C 72.7067 15.66 72.8987 15.27 73.0427 14.778L 74.2667 9L 76.8587 9L 75.5627 15.12C 75.5147 15.3 75.4907 15.492 75.4907 15.696C 75.4907 15.936 75.5447 16.11 75.6527 16.218C 75.7727 16.314 75.9647 16.362 76.2287 16.362C 76.4207 16.362 76.5587 16.35 76.6427 16.326C 76.7387 16.29 76.7987 16.266 76.8227 16.254C 76.7747 16.866 76.5647 17.328 76.1927 17.64C 75.8207 17.952 75.3647 18.108 74.8247 18.108C 74.3207 18.108 73.9127 17.958 73.6007 17.658C 73.3007 17.358 73.1207 16.938 73.0607 16.398C 72.6527 17.058 72.2207 17.508 71.7647 17.748C 71.3207 17.988 70.8587 18.108 70.3787 18.108ZM 87.2587 18.108C 86.5267 18.108 85.9867 17.916 85.6387 17.532C 85.3027 17.136 85.1347 16.65 85.1347 16.074C 85.1347 15.822 85.1647 15.54 85.2247 15.228C 85.2847 14.904 85.3447 14.592 85.4047 14.292C 85.4767 13.992 85.5247 13.8 85.5487 13.716C 85.6447 13.296 85.7347 12.882 85.8187 12.474C 85.9027 12.066 85.9447 11.736 85.9447 11.484C 85.9447 10.872 85.7287 10.566 85.2967 10.566C 84.9847 10.566 84.7087 10.722 84.4687 11.034C 84.2287 11.334 84.0367 11.73 83.8927 12.222L 82.6687 18L 80.0767 18L 81.9847 9L 84.5767 9L 84.3787 9.936C 84.9787 9.264 85.6807 8.928 86.4847 8.928C 87.0967 8.928 87.5827 9.096 87.9427 9.432C 88.3027 9.768 88.4827 10.278 88.4827 10.962C 88.4827 11.31 88.4407 11.7 88.3567 12.132C 88.2727 12.552 88.1527 13.068 87.9967 13.68C 87.9007 14.052 87.8107 14.418 87.7267 14.778C 87.6547 15.126 87.6187 15.402 87.6187 15.606C 87.6187 15.846 87.6727 16.032 87.7807 16.164C 87.8887 16.296 88.0747 16.362 88.3387 16.362C 88.6987 16.362 88.9867 16.236 89.2027 15.984C 89.4187 15.72 89.6347 15.318 89.8507 14.778L 90.6067 14.778C 90.1627 16.098 89.6467 16.986 89.0587 17.442C 88.4827 17.886 87.8827 18.108 87.2587 18.108ZM 91.2166 8.334L 93.8086 8.334L 93.5206 9.684C 94.1206 9.168 94.8226 8.91 95.6266 8.91C 96.2986 8.91 96.8326 9.132 97.2286 9.576C 97.6246 10.02 97.8226 10.746 97.8226 11.754C 97.8226 12.702 97.6846 13.662 97.4086 14.634C 97.1326 15.594 96.6646 16.416 96.0046 17.1C 95.3446 17.772 94.4746 18.108 93.3946 18.108C 92.6266 18.108 92.1166 17.892 91.8646 17.46L 90.9286 21.852L 88.2106 22.5L 91.2166 8.334ZM 92.8366 16.542C 93.4126 16.542 93.8866 16.272 94.2586 15.732C 94.6426 15.192 94.9186 14.55 95.0866 13.806C 95.2666 13.05 95.3566 12.348 95.3566 11.7C 95.3566 10.704 95.0566 10.206 94.4566 10.206C 94.2406 10.206 94.0186 10.284 93.7906 10.44C 93.5746 10.596 93.3826 10.812 93.2146 11.088L 92.1526 16.128C 92.2486 16.404 92.4766 16.542 92.8366 16.542ZM 100.897 18.072C 100.009 18.072 99.3066 17.844 98.7906 17.388C 98.2746 16.932 98.0166 16.212 98.0166 15.228C 98.0166 14.412 98.1846 13.506 98.5206 12.51C 98.8566 11.514 99.3966 10.656 100.141 9.936C 100.885 9.204 101.821 8.838 102.949 8.838C 104.485 8.838 105.253 9.798 105.253 11.718L 105.253 11.736C 105.289 11.748 105.355 11.754 105.451 11.754C 105.847 11.754 106.303 11.652 106.819 11.448C 107.335 11.232 107.803 10.974 108.223 10.674L 108.385 11.16C 108.037 11.532 107.581 11.85 107.017 12.114C 106.465 12.366 105.859 12.546 105.199 12.654C 105.103 13.746 104.857 14.7 104.461 15.516C 104.065 16.332 103.555 16.962 102.931 17.406C 102.307 17.85 101.629 18.072 100.897 18.072ZM 101.617 16.452C 101.905 16.452 102.193 16.29 102.481 15.966C 102.769 15.63 103.021 15.18 103.237 14.616C 103.453 14.04 103.609 13.404 103.705 12.708C 103.381 12.636 103.219 12.384 103.219 11.952C 103.219 11.46 103.405 11.136 103.777 10.98C 103.753 10.584 103.693 10.314 103.597 10.17C 103.501 10.014 103.333 9.936 103.093 9.936C 102.697 9.936 102.313 10.224 101.941 10.8C 101.569 11.376 101.269 12.066 101.041 12.87C 100.813 13.674 100.699 14.382 100.699 14.994C 100.699 15.57 100.765 15.96 100.897 16.164C 101.029 16.356 101.269 16.452 101.617 16.452ZM 109.365 22.5C 108.789 22.5 108.309 22.35 107.925 22.05C 107.541 21.75 107.349 21.318 107.349 20.754C 107.349 20.07 107.625 19.518 108.177 19.098C 108.729 18.69 109.431 18.348 110.283 18.072L 110.499 17.118C 109.887 17.778 109.167 18.108 108.339 18.108C 107.655 18.108 107.085 17.874 106.629 17.406C 106.173 16.938 105.945 16.206 105.945 15.21C 105.945 14.322 106.119 13.392 106.467 12.42C 106.827 11.436 107.355 10.608 108.051 9.936C 108.759 9.252 109.599 8.91 110.571 8.91C 111.063 8.91 111.429 8.994 111.669 9.162C 111.909 9.33 112.029 9.552 112.029 9.828L 112.029 9.936L 112.227 9L 114.819 9L 113.037 17.352C 113.613 17.16 114.075 16.872 114.423 16.488C 114.771 16.104 115.065 15.534 115.305 14.778L 116.061 14.778C 115.737 15.846 115.299 16.632 114.747 17.136C 114.195 17.628 113.571 17.964 112.875 18.144L 112.605 19.44C 112.365 20.604 111.951 21.402 111.363 21.834C 110.775 22.278 110.109 22.5 109.365 22.5ZM 109.509 16.362C 109.785 16.362 110.067 16.236 110.355 15.984C 110.643 15.732 110.841 15.39 110.949 14.958L 111.867 10.692C 111.867 10.548 111.807 10.404 111.687 10.26C 111.567 10.104 111.381 10.026 111.129 10.026C 110.649 10.026 110.217 10.308 109.833 10.872C 109.449 11.424 109.149 12.096 108.933 12.888C 108.717 13.668 108.609 14.358 108.609 14.958C 108.609 15.558 108.693 15.942 108.861 16.11C 109.041 16.278 109.257 16.362 109.509 16.362ZM 108.951 21.096C 109.155 21.096 109.353 20.958 109.545 20.682C 109.737 20.406 109.887 20.01 109.995 19.494L 110.103 18.972C 108.927 19.404 108.339 19.914 108.339 20.502C 108.339 20.658 108.393 20.796 108.501 20.916C 108.609 21.036 108.759 21.096 108.951 21.096ZM 118.11 22.5C 117.534 22.5 117.054 22.35 116.67 22.05C 116.286 21.75 116.094 21.318 116.094 20.754C 116.094 20.07 116.37 19.518 116.922 19.098C 117.474 18.69 118.176 18.348 119.028 18.072L 119.244 17.1C 118.896 17.484 118.542 17.748 118.182 17.892C 117.822 18.036 117.456 18.108 117.084 18.108C 116.508 18.108 116.04 17.928 115.68 17.568C 115.332 17.208 115.158 16.668 115.158 15.948C 115.158 15.648 115.206 15.258 115.302 14.778L 116.526 9L 119.118 9L 117.822 15.12C 117.786 15.264 117.768 15.414 117.768 15.57C 117.768 16.098 117.948 16.362 118.308 16.362C 118.62 16.362 118.896 16.23 119.136 15.966C 119.376 15.69 119.568 15.33 119.712 14.886L 120.972 9L 123.564 9L 121.782 17.352C 122.358 17.16 122.82 16.872 123.168 16.488C 123.516 16.104 123.81 15.534 124.05 14.778L 124.806 14.778C 124.482 15.846 124.044 16.632 123.492 17.136C 122.94 17.628 122.316 17.964 121.62 18.144L 121.35 19.44C 121.11 20.604 120.696 21.402 120.108 21.834C 119.52 22.278 118.854 22.5 118.11 22.5ZM 117.696 21.096C 117.9 21.096 118.098 20.958 118.29 20.682C 118.482 20.406 118.632 20.01 118.74 19.494L 118.848 18.972C 117.672 19.404 117.084 19.914 117.084 20.502C 117.084 20.658 117.138 20.796 117.246 20.916C 117.354 21.036 117.504 21.096 117.696 21.096ZM 130.554 18.108C 129.834 18.108 129.288 17.934 128.916 17.586C 128.556 17.226 128.376 16.734 128.376 16.11C 128.376 15.942 128.418 15.606 128.502 15.102C 128.562 14.802 128.592 14.568 128.592 14.4C 128.592 13.824 128.364 13.536 127.908 13.536C 127.752 13.536 127.602 13.584 127.458 13.68C 127.326 13.764 127.092 13.938 126.756 14.202L 125.964 18L 123.372 18L 125.298 9L 127.89 9L 127.116 12.564C 127.932 11.604 128.58 10.872 129.06 10.368C 129.54 9.864 129.978 9.486 130.374 9.234C 130.782 8.97 131.178 8.838 131.562 8.838C 132.306 8.838 132.678 9.234 132.678 10.026C 132.678 10.386 132.576 10.674 132.372 10.89C 132.18 11.094 131.904 11.196 131.544 11.196C 131.208 11.196 130.956 11.106 130.788 10.926C 130.62 10.734 130.542 10.518 130.554 10.278C 130.326 10.422 130.122 10.584 129.942 10.764C 129.762 10.944 129.564 11.178 129.348 11.466C 129.096 11.802 128.85 12.09 128.61 12.33C 128.85 12.282 129.102 12.258 129.366 12.258C 129.99 12.258 130.428 12.396 130.68 12.672C 130.944 12.948 131.076 13.368 131.076 13.932C 131.076 14.1 131.04 14.376 130.968 14.76C 130.896 15.168 130.86 15.48 130.86 15.696C 130.86 16.14 131.1 16.362 131.58 16.362C 131.916 16.362 132.18 16.248 132.372 16.02C 132.576 15.792 132.81 15.378 133.074 14.778L 133.83 14.778C 133.074 16.998 131.982 18.108 130.554 18.108ZM 143.711 18.108C 143.075 18.108 142.613 17.916 142.325 17.532C 142.037 17.148 141.893 16.662 141.893 16.074C 141.893 15.822 141.923 15.54 141.983 15.228C 142.043 14.904 142.103 14.592 142.163 14.292C 142.235 13.992 142.283 13.8 142.307 13.716C 142.403 13.296 142.493 12.882 142.577 12.474C 142.661 12.066 142.703 11.736 142.703 11.484C 142.703 10.872 142.487 10.566 142.055 10.566C 141.743 10.566 141.467 10.722 141.227 11.034C 140.987 11.334 140.795 11.73 140.651 12.222L 139.427 18L 136.835 18L 138.149 11.79C 138.185 11.646 138.203 11.496 138.203 11.34C 138.203 10.812 138.023 10.548 137.663 10.548C 137.327 10.548 137.033 10.704 136.781 11.016C 136.541 11.316 136.349 11.718 136.205 12.222L 134.981 18L 132.389 18L 134.297 9L 136.889 9L 136.691 9.936C 137.303 9.252 138.035 8.91 138.887 8.91C 139.943 8.91 140.561 9.426 140.741 10.458C 141.401 9.438 142.235 8.928 143.243 8.928C 143.855 8.928 144.341 9.096 144.701 9.432C 145.061 9.768 145.241 10.278 145.241 10.962C 145.241 11.31 145.199 11.7 145.115 12.132C 145.031 12.552 144.911 13.068 144.755 13.68C 144.659 14.052 144.569 14.418 144.485 14.778C 144.413 15.126 144.377 15.402 144.377 15.606C 144.377 15.846 144.431 16.032 144.539 16.164C 144.647 16.296 144.833 16.362 145.097 16.362C 145.385 16.362 145.583 16.326 145.691 16.254C 145.619 16.866 145.397 17.328 145.025 17.64C 144.665 17.952 144.227 18.108 143.711 18.108Z"/>
</defs>
</svg>
