<svg id="Слой_1" data-name="Слой 1" xmlns="http://www.w3.org/2000/svg" viewBox="0 0 252.81 263.81"><defs><style>.cls-1,.cls-2{fill:none;}.cls-1,.cls-2,.cls-3{stroke:#fff;stroke-miterlimit:10;}.cls-1{stroke-width:4px;}.cls-2{stroke-width:2px;}.cls-3{font-size:34.29px;fill:#fff;font-family:Pattaya-Regular, Pattaya;}</style></defs><title>сибирьб</title><polygon class="cls-1" points="151.5 2 101.5 2 76.5 45.3 101.5 88.6 151.5 88.6 176.5 45.3 151.5 2"/><polygon class="cls-2" points="147.85 8.32 105.15 8.32 83.8 45.3 105.15 82.28 147.85 82.28 169.21 45.3 147.85 8.32"/><polygon class="cls-2" points="221.66 138.43 178.95 138.43 157.6 175.41 178.95 212.4 221.66 212.4 243.01 175.41 221.66 138.43"/><polygon class="cls-2" points="73.66 51.62 30.96 51.62 9.6 88.6 30.96 125.59 73.66 125.59 95.02 88.6 73.66 51.62"/><polygon class="cls-2" points="147.85 181.52 105.15 181.52 83.8 218.51 105.15 255.49 147.85 255.49 169.21 218.51 147.85 181.52"/><polygon class="cls-1" points="151.5 175.21 101.5 175.21 76.5 218.51 101.5 261.81 151.5 261.81 176.5 218.51 151.5 175.21"/><polygon class="cls-1" points="225.5 131.9 175.5 131.9 150.5 175.21 175.5 218.51 225.5 218.51 250.5 175.21 225.5 131.9"/><polygon class="cls-1" points="77.31 45.3 27.31 45.3 2.31 88.6 27.31 131.9 77.31 131.9 102.31 88.6 77.31 45.3"/><polygon class="cls-1" points="225.5 45.3 175.5 45.3 150.5 88.6 101.5 88.6 76.5 131.9 27.31 131.9 2.31 175.21 27.31 218.51 77.31 218.51 102.31 175.21 151.5 175.21 176.5 131.9 225.5 131.9 250.5 88.6 225.5 45.3"/><text class="cls-3" transform="matrix(0.74, -0.43, 0.51, 0.86, 26.96, 200.93)">Сибирский продукт</text></svg>